{"glyphs":{"0":{"ha":714,"x_min":81,"x_max":633,"o":"m 633 258 q 357 -21 633 -21 q 81 258 81 -21 l 81 1072 q 357 1352 81 1352 q 633 1072 633 1352 l 633 258 m 441 1072 q 357 1162 441 1162 l 356 1162 q 273 1072 273 1162 l 273 258 q 357 168 273 168 q 441 258 441 168 l 441 1072 z "},"1":{"ha":728,"x_min":88,"x_max":640,"o":"m 460 1331 l 460 189 l 640 189 l 640 0 l 88 0 l 88 189 l 268 189 l 268 1141 l 88 1141 l 88 1331 l 460 1331 z "},"2":{"ha":728,"x_min":88,"x_max":640,"o":"m 88 286 q 267 593 88 465 q 448 811 447 722 l 448 1072 q 365 1162 448 1162 l 363 1162 q 280 1072 280 1162 l 280 894 l 88 894 l 88 1072 q 363 1352 88 1352 q 640 1072 640 1352 l 640 806 q 460 494 640 623 q 280 269 280 366 l 280 189 l 640 189 l 640 0 l 88 0 l 88 286 z "},"3":{"ha":728,"x_min":88,"x_max":640,"o":"m 448 1072 q 364 1162 448 1162 l 363 1162 q 280 1072 280 1162 l 280 894 l 88 894 l 88 1072 q 363 1352 88 1352 q 640 1072 640 1352 l 640 841 q 534 656 640 710 q 640 471 640 602 l 640 258 q 363 -21 640 -21 q 88 258 88 -21 l 88 437 l 280 437 l 280 258 q 363 168 280 168 l 364 168 q 448 258 448 169 l 448 471 q 417 557 448 543 q 367 564 401 564 l 304 564 l 304 753 l 382 753 q 422 761 409 753 q 448 842 448 775 l 448 1072 z "},"4":{"ha":728,"x_min":35,"x_max":690,"o":"m 616 1331 l 616 458 l 690 458 l 690 269 l 616 269 l 616 0 l 425 0 l 425 269 l 35 269 l 35 437 l 372 1331 l 616 1331 m 224 458 l 425 458 l 425 1023 l 224 458 z "},"5":{"ha":728,"x_min":88,"x_max":640,"o":"m 448 636 q 418 720 448 707 q 366 727 401 727 q 347 726 357 727 q 282 674 289 724 l 280 621 l 88 621 l 117 1331 l 640 1331 l 640 1141 l 301 1141 l 288 855 q 420 911 336 911 q 444 910 432 911 q 597 829 545 901 q 640 636 640 771 l 640 258 q 363 -21 640 -21 q 88 258 88 -21 l 88 416 l 280 416 l 280 258 q 363 168 280 168 l 364 168 q 448 258 448 169 l 448 636 z "},"6":{"ha":728,"x_min":88,"x_max":640,"o":"m 280 749 q 412 797 334 797 q 441 795 427 797 q 586 730 534 786 q 640 523 640 672 l 640 258 q 363 -21 640 -21 q 88 258 88 -21 l 88 1072 q 363 1352 88 1352 q 640 1072 640 1352 l 640 894 l 448 894 l 448 1072 q 364 1162 448 1162 l 363 1162 q 280 1072 280 1162 l 280 749 m 448 523 q 418 606 448 594 q 366 614 401 614 q 347 613 357 614 q 280 523 280 610 l 280 258 q 363 168 280 168 q 448 258 448 168 l 448 523 z "},"7":{"ha":728,"x_min":82,"x_max":650,"o":"m 82 1141 l 82 1331 l 650 1331 l 650 1194 l 381 0 l 184 0 l 441 1141 l 82 1141 z "},"8":{"ha":728,"x_min":88,"x_max":640,"o":"m 364 1352 q 640 1072 640 1352 l 640 841 q 535 656 640 710 q 640 471 640 602 l 640 258 q 364 -21 640 -21 q 88 258 88 -21 l 88 471 q 193 656 88 602 q 88 841 88 710 l 88 1072 q 364 1352 88 1352 m 365 168 q 448 258 448 169 l 448 471 q 418 557 448 543 q 368 564 401 564 l 361 564 q 311 557 327 564 q 280 471 280 543 l 280 258 q 363 168 280 169 l 365 168 m 382 753 q 423 761 410 753 q 448 842 448 775 l 448 1072 q 365 1162 448 1162 l 363 1162 q 280 1072 280 1162 l 280 842 q 305 761 280 775 q 346 753 319 753 l 382 753 z "},"9":{"ha":728,"x_min":88,"x_max":640,"o":"m 448 583 q 313 534 393 534 q 286 535 300 534 q 142 601 194 545 q 88 808 88 659 l 88 1072 q 364 1352 88 1352 q 640 1072 640 1352 l 640 258 q 363 -21 640 -21 q 88 258 88 -21 l 88 437 l 280 437 l 280 258 q 363 168 280 169 l 365 168 q 448 258 448 168 l 448 583 m 280 808 q 310 724 280 737 q 361 718 326 718 q 380 718 370 718 q 448 808 448 720 l 448 1072 q 364 1162 448 1162 q 280 1072 280 1162 l 280 808 z "},"\u0000":{"ha":0,"x_min":0,"x_max":0,"o":""}," ":{"ha":345,"x_min":0,"x_max":0,"o":""},"!":{"ha":383,"x_min":81,"x_max":302,"o":"m 302 1331 l 288 359 l 96 359 l 81 1331 l 302 1331 m 81 220 l 302 220 l 302 0 l 81 0 l 81 220 z "},"\"":{"ha":656,"x_min":81,"x_max":575,"o":"m 374 1331 l 575 1331 l 552 889 l 397 889 l 374 1331 m 81 1331 l 282 1331 l 259 889 l 104 889 l 81 1331 z "},"#":{"ha":915,"x_min":54,"x_max":861,"o":"m 193 599 l 227 773 l 83 773 l 83 877 l 248 877 l 338 1331 l 499 1331 l 409 877 l 575 877 l 665 1331 l 826 1331 l 736 877 l 861 877 l 861 773 l 715 773 l 680 599 l 832 599 l 832 495 l 659 495 l 561 0 l 400 0 l 498 495 l 332 495 l 234 0 l 73 0 l 172 495 l 54 495 l 54 599 l 193 599 m 388 773 l 353 599 l 519 599 l 554 773 l 388 773 z "},"$":{"ha":714,"x_min":81,"x_max":633,"o":"m 81 1094 q 278 1368 81 1337 l 278 1487 l 435 1487 l 435 1368 q 633 1094 633 1337 l 633 915 l 440 915 l 440 1094 q 357 1184 440 1183 l 356 1184 q 273 1094 273 1184 l 273 973 q 453 755 273 884 q 633 448 633 627 l 633 280 q 435 6 633 37 l 435 -156 l 278 -156 l 278 6 q 81 280 81 37 l 81 458 l 273 458 l 273 280 q 357 190 273 190 q 440 280 440 190 l 440 431 q 261 656 440 528 q 81 969 81 785 l 81 1094 z "},"%":{"ha":1151,"x_min":85,"x_max":1066,"o":"m 408 732 q 247 568 408 568 q 85 732 85 568 l 85 1209 q 247 1373 85 1373 q 408 1209 408 1373 l 408 732 m 1066 165 q 904 1 1066 1 l 903 1 q 743 165 743 1 l 743 642 q 904 806 743 806 q 1066 642 1066 806 l 1066 165 m 954 642 q 905 695 954 695 l 903 695 q 855 642 855 695 l 855 165 q 904 112 855 112 q 954 165 954 112 l 954 642 m 869 1331 l 379 0 l 260 0 l 750 1331 l 869 1331 m 296 1209 q 247 1262 296 1262 l 245 1262 q 197 1209 197 1262 l 197 732 q 247 679 197 679 q 296 732 296 679 l 296 1209 z "},"&":{"ha":802,"x_min":81,"x_max":755,"o":"m 355 189 q 441 280 441 190 l 441 592 l 370 592 q 326 586 339 591 q 273 502 273 566 l 273 280 q 352 189 273 189 l 355 189 m 441 781 l 441 872 l 633 872 l 633 781 l 755 781 l 755 592 l 633 592 l 633 280 q 355 1 633 1 q 81 280 81 1 l 81 502 q 186 687 81 633 q 81 872 81 741 l 81 1072 q 356 1352 81 1352 q 633 1072 633 1352 l 633 1015 l 441 1015 l 441 1072 q 359 1164 441 1154 q 273 1072 273 1156 l 273 872 q 326 787 273 808 q 370 781 339 782 l 441 781 z "},"'":{"ha":363,"x_min":81,"x_max":282,"o":"m 81 1331 l 282 1331 l 259 889 l 104 889 l 81 1331 z "},"(":{"ha":369,"x_min":81,"x_max":349,"o":"m 349 -168 q 81 113 81 -164 l 81 1219 q 349 1499 81 1495 l 349 1341 q 273 1251 273 1339 l 273 81 q 349 -9 273 -7 l 349 -168 z "},")":{"ha":369,"x_min":20,"x_max":288,"o":"m 20 -9 q 96 81 96 -7 l 96 1251 q 20 1341 96 1339 l 20 1499 q 288 1219 288 1495 l 288 113 q 20 -168 288 -164 l 20 -9 z "},"*":{"ha":686,"x_min":81,"x_max":605,"o":"m 427 1275 q 362 1126 419 1228 q 488 1236 447 1217 q 530 1246 511 1246 q 597 1182 575 1246 q 605 1138 605 1158 q 537 1073 605 1083 q 512 1072 526 1072 q 376 1089 465 1072 q 519 1003 488 1036 q 545 949 545 976 q 501 883 545 915 q 440 858 467 858 q 379 906 403 858 q 345 1065 358 948 q 307 902 329 941 q 246 859 283 859 q 187 882 220 859 q 142 948 142 914 q 172 1005 142 976 q 311 1086 205 1038 q 176 1069 223 1069 q 145 1072 157 1069 q 81 1139 81 1084 q 89 1180 81 1157 q 155 1246 109 1246 q 201 1233 176 1246 q 322 1125 243 1211 q 257 1278 262 1234 q 256 1294 256 1286 q 342 1365 256 1364 l 345 1365 q 429 1298 429 1365 q 427 1275 429 1287 z "},"+":{"ha":710,"x_min":81,"x_max":629,"o":"m 277 587 l 81 587 l 81 745 l 277 745 l 277 939 l 434 939 l 434 745 l 629 745 l 629 587 l 434 587 l 434 392 l 277 392 l 277 587 z "},",":{"ha":401,"x_min":81,"x_max":319,"o":"m 81 220 l 319 220 l 319 26 l 246 -222 l 122 -222 l 161 0 l 81 0 l 81 220 z "},"-":{"ha":533,"x_min":34,"x_max":499,"o":"m 34 570 l 34 728 l 499 728 l 499 570 l 34 570 z "},".":{"ha":383,"x_min":81,"x_max":302,"o":"m 81 220 l 302 220 l 302 0 l 81 0 l 81 220 z "},"/":{"ha":507,"x_min":41,"x_max":467,"o":"m 467 1331 l 201 0 l 41 0 l 306 1331 l 467 1331 z "},":":{"ha":382,"x_min":81,"x_max":301,"o":"m 81 901 l 301 901 l 301 682 l 81 682 l 81 901 m 81 220 l 301 220 l 301 0 l 81 0 l 81 220 z "},";":{"ha":401,"x_min":81,"x_max":319,"o":"m 81 220 l 319 220 l 319 26 l 246 -222 l 122 -222 l 161 0 l 81 0 l 81 220 m 81 901 l 302 901 l 302 682 l 81 682 l 81 901 z "},"<":{"ha":710,"x_min":81,"x_max":629,"o":"m 81 760 l 629 1066 l 629 880 l 231 663 l 629 452 l 629 266 l 81 562 l 81 760 z "},"=":{"ha":710,"x_min":81,"x_max":629,"o":"m 81 743 l 81 901 l 629 901 l 629 743 l 81 743 m 81 429 l 81 587 l 629 587 l 629 429 l 81 429 z "},">":{"ha":710,"x_min":81,"x_max":629,"o":"m 629 562 l 81 266 l 81 452 l 479 663 l 81 880 l 81 1066 l 629 760 l 629 562 z "},"?":{"ha":714,"x_min":81,"x_max":633,"o":"m 160 220 l 380 220 l 380 0 l 160 0 l 160 220 m 633 939 q 498 635 633 770 q 363 401 363 501 l 363 371 l 171 371 l 171 418 q 306 718 171 584 q 441 943 441 851 l 441 1072 q 358 1162 441 1162 l 357 1162 q 273 1072 273 1162 l 273 894 l 81 894 l 81 1072 q 357 1352 81 1352 q 633 1072 633 1352 l 633 939 z "},"@":{"ha":1006,"x_min":88,"x_max":918,"o":"m 917 884 l 917 830 q 736 646 917 646 l 662 646 l 662 412 q 480 228 662 228 q 299 412 299 228 l 299 587 q 480 770 299 770 l 536 770 l 536 948 q 481 1007 536 1007 l 479 1007 q 425 948 425 1007 l 425 901 l 299 901 l 299 948 q 480 1132 299 1132 q 662 948 662 1132 l 662 770 l 736 770 q 791 830 791 770 l 791 956 q 503 1236 791 1236 q 215 947 215 1236 l 215 404 q 503 125 215 125 q 791 412 791 125 l 791 441 l 918 441 l 918 412 q 503 1 918 1 q 88 404 88 1 l 88 947 q 503 1360 88 1360 q 918 956 918 1360 l 918 884 l 917 884 m 469 646 q 414 587 414 646 l 414 412 q 469 353 414 353 q 525 412 525 353 l 525 646 l 469 646 z "},"A":{"ha":713,"x_min":27,"x_max":686,"o":"m 623 472 l 686 0 l 492 0 l 454 282 l 258 282 l 220 0 l 27 0 l 90 470 l 225 1331 l 488 1331 l 623 472 m 429 472 l 356 1025 l 283 472 l 429 472 z "},"B":{"ha":707,"x_min":88,"x_max":640,"o":"m 88 1331 l 384 1331 q 640 1050 640 1330 l 640 850 q 534 665 640 720 q 640 480 640 611 l 640 279 q 372 0 640 1 l 88 0 l 88 1331 m 280 1141 l 280 760 l 340 760 q 395 766 380 760 q 448 850 448 787 l 448 1050 q 364 1141 448 1141 l 280 1141 m 280 570 l 280 189 l 364 189 q 448 279 448 189 l 448 480 q 395 564 448 544 q 340 570 380 570 l 280 570 z "},"C":{"ha":694,"x_min":75,"x_max":626,"o":"m 626 258 q 350 -22 626 -21 q 75 258 75 -22 l 75 1072 q 350 1352 75 1352 q 626 1072 626 1352 l 626 893 l 434 893 l 434 1072 q 351 1162 434 1162 l 349 1162 q 267 1072 267 1162 l 267 258 q 350 168 267 168 q 434 258 434 168 l 434 437 l 626 437 l 626 258 z "},"D":{"ha":714,"x_min":88,"x_max":640,"o":"m 88 1331 l 384 1331 q 640 1050 640 1330 l 640 279 q 372 0 640 1 l 88 0 l 88 1331 m 280 1141 l 280 189 l 364 189 q 448 279 448 189 l 448 1050 q 364 1141 448 1141 l 280 1141 z "},"E":{"ha":640,"x_min":88,"x_max":586,"o":"m 88 1331 l 586 1331 l 586 1141 l 280 1141 l 280 760 l 543 760 l 543 570 l 280 570 l 280 189 l 586 189 l 586 0 l 88 0 l 88 1331 z "},"F":{"ha":627,"x_min":88,"x_max":586,"o":"m 88 1331 l 586 1331 l 586 1141 l 280 1141 l 280 760 l 543 760 l 543 570 l 280 570 l 280 0 l 88 0 l 88 1331 z "},"G":{"ha":701,"x_min":75,"x_max":626,"o":"m 626 258 q 350 -22 626 -21 q 75 258 75 -22 l 75 1072 q 350 1352 75 1352 q 626 1072 626 1352 l 626 893 l 434 893 l 434 1072 q 351 1162 434 1162 l 349 1162 q 267 1072 267 1162 l 267 258 q 350 168 267 168 q 434 258 434 168 l 434 570 l 351 570 l 351 760 l 626 760 l 626 258 z "},"H":{"ha":728,"x_min":88,"x_max":640,"o":"m 88 1331 l 280 1331 l 280 760 l 448 760 l 448 1331 l 640 1331 l 640 0 l 448 0 l 448 570 l 280 570 l 280 0 l 88 0 l 88 1331 z "},"I":{"ha":375,"x_min":92,"x_max":283,"o":"m 92 1331 l 283 1331 l 283 0 l 92 0 l 92 1331 z "},"J":{"ha":660,"x_min":20,"x_max":572,"o":"m 20 437 l 212 437 l 212 258 q 296 168 212 168 q 380 258 380 168 l 380 1331 l 572 1331 l 572 258 q 296 -22 572 -22 q 20 258 20 -21 l 20 437 z "},"K":{"ha":717,"x_min":88,"x_max":690,"o":"m 436 665 l 690 0 l 484 0 l 280 591 l 280 0 l 88 0 l 88 1331 l 280 1331 l 280 739 l 484 1331 l 690 1331 l 436 665 z "},"L":{"ha":613,"x_min":88,"x_max":586,"o":"m 88 0 l 88 1331 l 280 1331 l 280 189 l 586 189 l 586 0 l 88 0 z "},"M":{"ha":1009,"x_min":88,"x_max":921,"o":"m 506 419 l 729 1331 l 921 1331 l 921 0 l 737 0 l 737 747 l 573 0 l 443 0 l 274 747 l 274 0 l 88 0 l 88 1331 l 280 1331 l 506 419 z "},"N":{"ha":728,"x_min":88,"x_max":640,"o":"m 88 1331 l 280 1331 l 462 559 l 462 1331 l 640 1331 l 640 0 l 448 0 l 273 747 l 273 0 l 88 0 l 88 1331 z "},"O":{"ha":701,"x_min":75,"x_max":626,"o":"m 626 258 q 350 -22 626 -21 q 75 258 75 -22 l 75 1072 q 350 1352 75 1352 q 626 1072 626 1352 l 626 258 m 434 1072 q 351 1162 434 1162 l 349 1162 q 267 1072 267 1162 l 267 258 q 350 168 267 168 q 434 258 434 168 l 434 1072 z "},"P":{"ha":677,"x_min":88,"x_max":623,"o":"m 88 1331 l 368 1331 q 623 1050 623 1330 l 623 850 q 439 585 623 644 q 311 570 395 570 l 280 570 l 280 0 l 88 0 l 88 1331 m 280 1141 l 280 760 l 324 760 q 379 766 364 760 q 431 850 431 787 l 431 1050 q 348 1141 431 1141 l 280 1141 z "},"Q":{"ha":701,"x_min":75,"x_max":626,"o":"m 626 258 q 416 -18 626 9 q 626 -62 419 -61 l 626 -222 q 392 -189 456 -222 q 307 -20 309 -147 q 75 258 75 -3 l 75 1072 q 350 1352 75 1352 q 626 1072 626 1352 l 626 258 m 434 1072 q 351 1162 434 1162 l 349 1162 q 267 1072 267 1162 l 267 258 q 350 168 267 168 q 434 258 434 168 l 434 1072 z "},"R":{"ha":708,"x_min":88,"x_max":688,"o":"m 88 1331 l 368 1331 q 623 1050 623 1330 l 623 850 q 472 619 623 675 l 688 0 l 477 0 l 304 585 l 280 582 l 280 0 l 88 0 l 88 1331 m 280 1141 l 280 760 l 324 760 q 379 766 364 760 q 431 850 431 787 l 431 1050 q 348 1141 431 1141 l 280 1141 z "},"S":{"ha":701,"x_min":75,"x_max":626,"o":"m 75 1072 q 350 1352 75 1352 q 626 1072 626 1352 l 626 893 l 434 893 l 434 1072 q 351 1162 434 1162 l 349 1162 q 267 1072 267 1162 l 267 951 q 446 734 267 863 q 626 427 626 606 l 626 258 q 351 -22 626 -22 q 75 258 75 -21 l 75 437 l 267 437 l 267 258 q 351 168 267 168 q 434 258 434 168 l 434 410 q 254 635 434 507 q 75 947 75 764 l 75 1072 z "},"T":{"ha":619,"x_min":34,"x_max":585,"o":"m 585 1331 l 585 1141 l 406 1141 l 406 0 l 214 0 l 214 1141 l 34 1141 l 34 1331 l 585 1331 z "},"U":{"ha":714,"x_min":81,"x_max":633,"o":"m 633 258 q 357 -22 633 -21 q 81 258 81 -22 l 81 1331 l 273 1331 l 273 258 q 357 168 273 168 q 441 258 441 168 l 441 1331 l 633 1331 l 633 258 z "},"V":{"ha":713,"x_min":27,"x_max":686,"o":"m 488 0 l 225 0 l 90 860 l 27 1331 l 221 1331 l 356 305 l 492 1331 l 686 1331 l 623 859 l 488 0 z "},"W":{"ha":1175,"x_min":27,"x_max":1147,"o":"m 818 305 l 954 1331 l 1147 1331 l 1085 859 l 950 0 l 687 0 l 587 687 l 488 0 l 225 0 l 90 860 l 27 1331 l 220 1331 l 356 305 l 492 1331 l 682 1331 l 818 305 z "},"X":{"ha":690,"x_min":27,"x_max":663,"o":"m 220 1331 l 345 956 l 469 1331 l 663 1331 l 441 665 l 663 0 l 469 0 l 345 374 l 220 0 l 27 0 l 248 665 l 27 1331 l 220 1331 z "},"Y":{"ha":723,"x_min":27,"x_max":696,"o":"m 231 1331 l 361 812 l 492 1331 l 696 1331 l 463 576 l 458 559 l 458 0 l 266 0 l 266 559 l 260 576 l 27 1331 l 231 1331 z "},"Z":{"ha":597,"x_min":54,"x_max":543,"o":"m 531 1215 l 271 189 l 543 189 l 543 0 l 54 0 l 54 115 l 315 1141 l 63 1141 l 63 1331 l 531 1331 l 531 1215 z "},"[":{"ha":371,"x_min":88,"x_max":351,"o":"m 351 1499 l 351 1341 l 246 1341 l 246 -9 l 351 -9 l 351 -168 l 88 -168 l 88 1499 l 351 1499 z "},"\\":{"ha":507,"x_min":41,"x_max":467,"o":"m 201 1331 l 467 0 l 306 0 l 41 1331 l 201 1331 z "},"]":{"ha":371,"x_min":20,"x_max":283,"o":"m 283 1499 l 283 -168 l 20 -168 l 20 -9 l 125 -9 l 125 1341 l 20 1341 l 20 1499 l 283 1499 z "},"^":{"ha":785,"x_min":68,"x_max":717,"o":"m 479 1342 l 717 795 l 545 795 l 392 1145 l 240 795 l 68 795 l 306 1342 l 479 1342 z "},"_":{"ha":700,"x_min":0,"x_max":700,"o":"m 0 -216 l 0 -73 l 700 -73 l 700 -216 l 0 -216 z "},"`":{"ha":423,"x_min":88,"x_max":335,"o":"m 88 1396 l 239 1396 l 335 1224 l 229 1224 l 88 1396 z "},"a":{"ha":713,"x_min":27,"x_max":686,"o":"m 623 417 l 686 0 l 492 0 l 454 250 l 258 250 l 220 0 l 27 0 l 90 416 l 225 1176 l 488 1176 l 623 417 m 429 417 l 356 907 l 283 417 l 429 417 z "},"b":{"ha":707,"x_min":88,"x_max":640,"o":"m 88 1176 l 384 1176 q 640 928 640 1176 l 640 752 q 534 588 640 636 q 640 425 640 540 l 640 247 q 372 0 640 1 l 88 0 l 88 1176 m 280 1009 l 280 672 l 340 672 q 395 677 380 672 q 448 752 448 695 l 448 928 q 364 1009 448 1009 l 280 1009 m 280 504 l 280 168 l 364 168 q 448 247 448 168 l 448 425 q 395 498 448 481 q 340 504 380 504 l 280 504 z "},"c":{"ha":694,"x_min":75,"x_max":626,"o":"m 626 226 q 350 -22 626 -21 q 75 226 75 -22 l 75 945 q 350 1192 75 1192 q 626 945 626 1192 l 626 787 l 434 787 l 434 945 q 351 1025 434 1025 l 349 1025 q 267 945 267 1025 l 267 226 q 350 146 267 146 q 434 226 434 146 l 434 384 l 626 384 l 626 226 z "},"d":{"ha":714,"x_min":88,"x_max":640,"o":"m 88 1176 l 384 1176 q 640 928 640 1176 l 640 247 q 372 0 640 1 l 88 0 l 88 1176 m 280 1009 l 280 168 l 364 168 q 448 247 448 168 l 448 928 q 364 1009 448 1009 l 280 1009 z "},"e":{"ha":640,"x_min":88,"x_max":586,"o":"m 88 1176 l 586 1176 l 586 1009 l 280 1009 l 280 672 l 543 672 l 543 504 l 280 504 l 280 168 l 586 168 l 586 0 l 88 0 l 88 1176 z "},"f":{"ha":627,"x_min":88,"x_max":586,"o":"m 88 1176 l 586 1176 l 586 1009 l 280 1009 l 280 672 l 543 672 l 543 504 l 280 504 l 280 0 l 88 0 l 88 1176 z "},"g":{"ha":701,"x_min":75,"x_max":626,"o":"m 626 226 q 350 -22 626 -21 q 75 226 75 -22 l 75 945 q 350 1192 75 1192 q 626 945 626 1192 l 626 787 l 434 787 l 434 945 q 351 1025 434 1025 l 349 1025 q 267 945 267 1025 l 267 226 q 350 146 267 146 q 434 226 434 146 l 434 502 l 351 502 l 351 669 l 626 669 l 626 226 z "},"h":{"ha":728,"x_min":88,"x_max":640,"o":"m 88 1176 l 280 1176 l 280 672 l 448 672 l 448 1176 l 640 1176 l 640 0 l 448 0 l 448 504 l 280 504 l 280 0 l 88 0 l 88 1176 z "},"i":{"ha":375,"x_min":92,"x_max":283,"o":"m 92 1176 l 283 1176 l 283 0 l 92 0 l 92 1176 z "},"j":{"ha":660,"x_min":20,"x_max":572,"o":"m 20 384 l 212 384 l 212 226 q 296 146 212 146 q 380 226 380 146 l 380 1174 l 572 1174 l 572 226 q 296 -22 572 -22 q 20 226 20 -21 l 20 384 z "},"k":{"ha":717,"x_min":88,"x_max":690,"o":"m 436 588 l 690 0 l 484 0 l 280 523 l 280 0 l 88 0 l 88 1176 l 280 1176 l 280 653 l 484 1176 l 690 1176 l 436 588 z "},"l":{"ha":613,"x_min":88,"x_max":586,"o":"m 88 0 l 88 1176 l 280 1176 l 280 168 l 586 168 l 586 0 l 88 0 z "},"m":{"ha":1009,"x_min":88,"x_max":921,"o":"m 506 370 l 729 1176 l 921 1176 l 921 0 l 737 0 l 737 660 l 573 0 l 443 0 l 274 660 l 274 0 l 88 0 l 88 1176 l 280 1176 l 506 370 z "},"n":{"ha":728,"x_min":88,"x_max":640,"o":"m 88 1176 l 280 1176 l 462 494 l 462 1176 l 640 1176 l 640 0 l 448 0 l 273 661 l 273 0 l 88 0 l 88 1176 z "},"o":{"ha":701,"x_min":75,"x_max":626,"o":"m 626 226 q 350 -22 626 -21 q 75 226 75 -22 l 75 945 q 350 1192 75 1192 q 626 945 626 1192 l 626 226 m 434 945 q 351 1025 434 1025 l 349 1025 q 267 945 267 1025 l 267 226 q 350 146 267 146 q 434 226 434 146 l 434 945 z "},"p":{"ha":677,"x_min":88,"x_max":623,"o":"m 88 1176 l 368 1176 q 623 928 623 1176 l 623 752 q 439 517 623 570 q 311 504 395 504 l 280 504 l 280 0 l 88 0 l 88 1176 m 280 1009 l 280 672 l 324 672 q 379 677 364 672 q 431 752 431 695 l 431 928 q 348 1009 431 1009 l 280 1009 z "},"q":{"ha":701,"x_min":75,"x_max":626,"o":"m 626 203 q 416 -41 626 -18 q 626 -81 419 -80 l 626 -222 q 392 -193 456 -222 q 307 -43 309 -156 q 75 203 75 -28 l 75 922 q 350 1169 75 1169 q 626 922 626 1169 l 626 203 m 434 922 q 351 1002 434 1001 l 349 1002 q 267 922 267 1002 l 267 203 q 350 123 267 123 q 434 203 434 123 l 434 922 z "},"r":{"ha":708,"x_min":88,"x_max":688,"o":"m 88 1176 l 368 1176 q 623 928 623 1176 l 623 752 q 472 547 623 597 l 688 0 l 477 0 l 304 517 l 280 514 l 280 0 l 88 0 l 88 1176 m 280 1009 l 280 672 l 324 672 q 379 677 364 672 q 431 752 431 695 l 431 928 q 348 1009 431 1009 l 280 1009 z "},"s":{"ha":701,"x_min":75,"x_max":626,"o":"m 75 945 q 350 1192 75 1192 q 626 945 626 1192 l 626 787 l 434 787 l 434 945 q 351 1025 434 1025 l 349 1025 q 267 945 267 1025 l 267 839 q 446 646 267 760 q 626 374 626 533 l 626 226 q 351 -22 626 -22 q 75 226 75 -21 l 75 384 l 267 384 l 267 226 q 351 146 267 146 q 434 226 434 146 l 434 360 q 254 559 434 446 q 75 835 75 673 l 75 945 z "},"t":{"ha":619,"x_min":34,"x_max":585,"o":"m 585 1176 l 585 1009 l 406 1009 l 406 0 l 214 0 l 214 1009 l 34 1009 l 34 1176 l 585 1176 z "},"u":{"ha":714,"x_min":81,"x_max":633,"o":"m 633 226 q 357 -22 633 -21 q 81 226 81 -22 l 81 1174 l 273 1174 l 273 226 q 357 146 273 146 q 441 226 441 146 l 441 1174 l 633 1174 l 633 226 z "},"v":{"ha":713,"x_min":27,"x_max":686,"o":"m 488 0 l 225 0 l 90 760 l 27 1176 l 221 1176 l 356 270 l 492 1176 l 686 1176 l 623 759 l 488 0 z "},"w":{"ha":1175,"x_min":27,"x_max":1147,"o":"m 818 270 l 954 1176 l 1147 1176 l 1085 759 l 950 0 l 687 0 l 587 607 l 488 0 l 225 0 l 90 760 l 27 1176 l 220 1176 l 356 270 l 492 1176 l 682 1176 l 818 270 z "},"x":{"ha":690,"x_min":27,"x_max":663,"o":"m 220 1176 l 345 845 l 469 1176 l 663 1176 l 441 588 l 663 0 l 469 0 l 345 331 l 220 0 l 27 0 l 248 588 l 27 1176 l 220 1176 z "},"y":{"ha":723,"x_min":27,"x_max":696,"o":"m 231 1176 l 361 718 l 492 1176 l 696 1176 l 463 509 l 458 494 l 458 0 l 266 0 l 266 494 l 260 509 l 27 1176 l 231 1176 z "},"z":{"ha":597,"x_min":54,"x_max":543,"o":"m 531 1074 l 271 168 l 543 168 l 543 0 l 54 0 l 54 102 l 315 1009 l 63 1009 l 63 1176 l 531 1176 l 531 1074 z "},"{":{"ha":370,"x_min":7,"x_max":349,"o":"m 349 -168 q 82 113 82 -164 l 82 496 q 7 587 82 585 l 7 745 q 82 835 82 747 l 82 1219 q 349 1499 82 1495 l 349 1341 q 274 1251 274 1339 l 274 867 q 220 666 274 732 q 274 465 274 600 l 274 81 q 349 -9 274 -7 l 349 -168 z "},"|":{"ha":347,"x_min":95,"x_max":252,"o":"m 95 1553 l 252 1553 l 252 -222 l 95 -222 l 95 1553 z "},"}":{"ha":370,"x_min":20,"x_max":363,"o":"m 20 -9 q 96 81 96 -7 l 96 465 q 149 666 96 600 q 96 867 96 732 l 96 1251 q 20 1341 96 1339 l 20 1499 q 288 1219 288 1495 l 288 835 q 363 745 288 747 l 363 587 q 288 496 288 585 l 288 113 q 20 -168 288 -164 l 20 -9 z "},"~":{"ha":746,"x_min":68,"x_max":678,"o":"m 182 564 l 68 637 l 104 694 q 262 798 172 798 l 269 798 q 420 726 328 795 q 496 692 467 692 q 530 708 517 692 l 572 761 l 678 677 l 636 624 q 498 547 575 547 l 490 547 q 339 618 430 549 q 274 661 286 659 q 268 661 271 661 q 218 621 245 661 l 182 564 z "},"¡":{"ha":383,"x_min":81,"x_max":302,"o":"m 81 -158 l 96 813 l 288 813 l 302 -158 l 81 -158 m 302 952 l 81 952 l 81 1173 l 302 1173 l 302 952 z "},"¢":{"ha":728,"x_min":81,"x_max":646,"o":"m 273 413 l 440 959 q 357 1025 433 1024 q 273 945 273 1025 l 273 413 m 295 168 q 357 149 315 149 q 441 228 441 149 l 441 386 l 633 386 l 633 228 q 357 -18 633 -18 q 242 -5 292 -18 l 176 -222 l 81 -216 l 158 37 q 81 228 81 98 l 81 945 q 357 1192 81 1192 q 503 1167 444 1192 l 551 1324 l 646 1318 l 583 1110 q 633 945 633 1050 l 633 787 l 484 787 l 295 168 z "},"£":{"ha":764,"x_min":41,"x_max":723,"o":"m 363 623 l 363 374 q 321 189 363 254 l 669 189 l 669 0 l 41 0 l 41 189 l 87 189 q 172 280 172 189 l 172 623 l 41 623 l 41 730 l 172 730 l 172 1072 q 447 1352 172 1352 q 723 1072 723 1352 l 723 894 l 531 894 l 531 1072 q 448 1162 531 1162 l 446 1162 q 363 1072 363 1162 l 363 730 l 588 730 l 588 623 l 363 623 z "},"¤":{"ha":948,"x_min":88,"x_max":860,"o":"m 750 575 q 745 503 750 536 l 860 389 l 745 273 l 670 349 q 474 296 604 296 q 279 348 344 296 l 204 273 l 88 389 l 203 503 q 199 575 199 536 l 199 756 q 201 817 199 789 l 88 930 l 204 1045 l 272 977 q 474 1036 337 1036 q 677 977 611 1036 l 745 1045 l 860 930 l 747 817 q 750 756 750 789 l 750 575 m 558 756 q 475 846 558 846 l 473 846 q 391 756 391 846 l 391 575 q 474 485 391 485 q 558 575 558 485 l 558 756 z "},"¥":{"ha":804,"x_min":68,"x_max":736,"o":"m 274 662 l 68 1331 l 271 1331 l 402 812 l 533 1331 l 736 1331 l 530 662 l 676 662 l 676 555 l 498 555 l 498 447 l 676 447 l 676 339 l 498 339 l 498 0 l 307 0 l 307 339 l 129 339 l 129 447 l 307 447 l 307 555 l 129 555 l 129 662 l 274 662 z "},"¦":{"ha":347,"x_min":95,"x_max":252,"o":"m 95 1173 l 252 1173 l 252 669 l 95 669 l 95 1173 m 95 532 l 252 532 l 252 0 l 95 0 l 95 532 z "},"§":{"ha":714,"x_min":81,"x_max":633,"o":"m 633 36 q 359 -222 633 -222 q 97 36 97 -222 l 97 108 l 289 108 l 289 36 q 366 -47 289 -47 q 440 36 440 -47 q 261 275 440 166 q 81 616 81 382 q 209 850 81 801 q 81 1111 81 936 q 355 1352 81 1352 q 616 1111 616 1352 l 616 1043 l 425 1043 l 425 1111 q 349 1189 425 1189 q 273 1111 273 1189 q 453 887 273 989 q 633 567 633 785 q 469 336 633 374 q 633 36 633 236 m 443 608 q 353 705 443 705 l 351 705 q 262 608 262 705 l 262 580 q 352 482 262 482 q 443 580 443 482 l 443 608 z "},"¨":{"ha":610,"x_min":88,"x_max":522,"o":"m 88 1389 l 252 1389 l 252 1225 l 88 1225 l 88 1389 m 357 1389 l 522 1389 l 522 1225 l 357 1225 l 357 1389 z "},"©":{"ha":992,"x_min":81,"x_max":911,"o":"m 911 412 q 496 1 911 1 q 81 404 81 1 l 81 947 q 496 1360 81 1360 q 911 956 911 1360 l 911 412 m 784 956 q 496 1236 784 1236 q 208 947 208 1236 l 208 404 q 496 125 208 125 q 784 412 784 125 l 784 956 m 681 410 q 497 223 681 223 q 314 410 314 223 l 314 951 q 497 1137 314 1137 q 681 951 681 1137 l 681 899 l 553 899 l 553 951 q 498 1011 553 1010 q 441 951 441 1011 l 441 410 q 497 349 441 349 q 553 410 553 349 l 553 461 l 681 461 l 681 410 z "},"ª":{"ha":516,"x_min":41,"x_max":475,"o":"m 434 877 l 475 627 l 347 627 l 323 777 l 193 777 l 168 627 l 41 627 l 82 876 l 172 1331 l 345 1331 l 434 877 m 306 877 l 258 1169 l 210 877 l 306 877 m 45 353 l 45 484 l 465 484 l 465 353 l 45 353 z "},"«":{"ha":885,"x_min":88,"x_max":797,"o":"m 465 800 l 313 671 l 465 546 l 465 329 l 88 680 l 465 1023 l 465 800 m 797 800 l 645 671 l 797 546 l 797 329 l 420 680 l 797 1023 l 797 800 z "},"¬":{"ha":724,"x_min":88,"x_max":635,"o":"m 88 587 l 88 745 l 635 745 l 635 392 l 478 392 l 478 587 l 88 587 z "},"®":{"ha":992,"x_min":81,"x_max":911,"o":"m 911 412 q 496 1 911 1 q 81 404 81 1 l 81 947 q 496 1360 81 1360 q 911 956 911 1360 l 911 412 m 784 956 q 496 1236 784 1236 q 208 947 208 1236 l 208 404 q 496 125 208 125 q 784 412 784 125 l 784 956 m 311 1123 l 499 1122 l 507 1122 q 677 937 677 1122 l 677 803 q 608 680 677 716 q 677 557 677 644 l 677 237 l 550 237 l 550 557 q 515 613 550 599 q 478 617 505 617 l 438 617 l 438 237 l 311 237 l 311 1123 m 438 997 l 438 743 l 478 743 q 515 747 505 743 q 550 803 550 761 l 550 937 q 494 997 550 997 l 438 997 z "},"¯":{"ha":819,"x_min":0,"x_max":819,"o":"m 0 1188 l 0 1331 l 819 1331 l 819 1188 l 0 1188 z "},"°":{"ha":595,"x_min":88,"x_max":507,"o":"m 297 1390 q 507 1181 507 1390 q 297 971 507 971 q 88 1181 88 971 q 297 1390 88 1390 m 297 1265 q 212 1181 212 1265 q 297 1095 212 1095 q 382 1181 382 1095 q 297 1265 382 1265 z "},"±":{"ha":710,"x_min":81,"x_max":629,"o":"m 277 587 l 81 587 l 81 745 l 277 745 l 277 939 l 434 939 l 434 745 l 629 745 l 629 587 l 434 587 l 434 392 l 277 392 l 277 587 m 627 252 l 627 109 l 81 109 l 81 252 l 627 252 z "},"²":{"ha":457,"x_min":68,"x_max":389,"o":"m 68 730 q 172 910 68 835 q 277 1037 277 985 l 277 1189 q 229 1242 277 1242 l 229 1242 q 180 1189 180 1242 l 180 1085 l 68 1085 l 68 1189 q 229 1352 68 1352 q 389 1189 389 1352 l 389 1034 q 284 852 389 927 q 180 721 180 777 l 180 674 l 389 674 l 389 564 l 68 564 l 68 730 z "},"³":{"ha":460,"x_min":68,"x_max":393,"o":"m 281 855 q 263 906 281 898 q 233 910 253 910 l 195 910 l 195 1021 l 242 1021 q 266 1026 258 1021 q 281 1074 281 1035 l 281 1191 q 263 1242 281 1234 q 232 1246 253 1246 q 220 1245 227 1246 q 180 1191 180 1244 l 180 1086 l 68 1086 l 68 1192 q 134 1339 68 1305 q 228 1363 180 1363 q 319 1342 273 1363 q 393 1192 393 1311 l 393 1074 q 331 964 393 996 q 393 855 393 932 l 393 713 q 340 573 393 610 q 236 547 307 549 l 227 547 q 130 568 164 547 q 68 713 68 603 l 68 818 l 180 818 l 180 712 q 230 658 180 658 q 281 712 281 658 l 281 855 z "},"´":{"ha":423,"x_min":88,"x_max":335,"o":"m 195 1224 l 88 1224 l 184 1396 l 335 1396 l 195 1224 z "},"µ":{"ha":721,"x_min":88,"x_max":640,"o":"m 280 258 q 363 168 280 168 q 448 258 448 168 l 448 1109 l 640 1109 l 640 258 q 423 -18 640 5 q 398 -20 410 -20 q 280 16 335 -20 l 280 -222 l 88 -222 l 88 1109 l 280 1109 l 280 258 z "},"¶":{"ha":793,"x_min":68,"x_max":705,"o":"m 705 1331 l 705 0 l 569 0 l 569 1195 l 418 1195 l 418 0 l 281 0 l 281 692 q 115 719 150 692 q 68 888 68 754 l 68 1128 q 116 1301 68 1263 q 281 1331 153 1331 l 705 1331 z "},"·":{"ha":345,"x_min":81,"x_max":269,"o":"m 81 759 l 269 759 l 269 572 l 81 572 l 81 759 z "},"¸":{"ha":430,"x_min":120,"x_max":307,"o":"m 203 -58 q 250 -45 228 -45 q 288 -58 271 -45 q 307 -106 307 -72 l 307 -173 q 237 -236 307 -231 q 214 -237 227 -237 q 201 -237 208 -237 q 120 -173 120 -235 l 120 -153 l 200 -153 l 200 -173 q 214 -183 200 -183 q 227 -173 227 -183 l 227 -106 q 215 -94 227 -94 l 214 -94 q 197 -105 202 -94 l 121 -105 l 142 1 l 224 1 l 203 -58 z "},"¹":{"ha":728,"x_min":88,"x_max":406,"o":"m 302 1331 l 302 672 l 406 672 l 406 563 l 88 563 l 88 672 l 192 672 l 192 1221 l 88 1221 l 88 1331 l 302 1331 z "},"º":{"ha":527,"x_min":81,"x_max":446,"o":"m 446 753 q 263 605 446 605 q 81 753 81 605 l 81 1183 q 263 1331 81 1331 q 446 1183 446 1331 l 446 753 m 319 1183 q 264 1231 319 1230 q 208 1183 208 1231 l 208 753 q 263 705 208 705 q 319 753 319 705 l 319 1183 m 88 343 l 88 462 l 438 462 l 438 343 l 88 343 z "},"»":{"ha":885,"x_min":88,"x_max":797,"o":"m 88 1023 l 465 680 l 88 329 l 88 546 l 240 671 l 88 800 l 88 1023 m 420 1023 l 797 680 l 420 329 l 420 546 l 572 671 l 420 800 l 420 1023 z "},"¼":{"ha":1091,"x_min":81,"x_max":1023,"o":"m 981 763 l 981 296 l 1023 296 l 1023 187 l 981 187 l 981 0 l 871 0 l 871 187 l 648 187 l 648 283 l 840 763 l 981 763 m 756 296 l 871 296 l 871 587 l 756 296 m 907 1331 l 417 0 l 298 0 l 788 1331 l 907 1331 m 296 1331 l 296 672 l 399 672 l 399 563 l 81 563 l 81 672 l 185 672 l 185 1221 l 81 1221 l 81 1331 l 296 1331 z "},"½":{"ha":1143,"x_min":41,"x_max":1075,"o":"m 866 1331 l 376 0 l 257 0 l 747 1331 l 866 1331 m 255 1331 l 255 672 l 359 672 l 359 563 l 41 563 l 41 672 l 144 672 l 144 1221 l 41 1221 l 41 1331 l 255 1331 m 753 167 q 858 347 753 271 q 963 473 962 421 l 963 625 q 915 678 963 678 l 914 678 q 865 625 865 678 l 865 522 l 753 522 l 753 625 q 914 789 753 789 q 1075 625 1075 789 l 1075 471 q 970 288 1075 363 q 865 157 865 214 l 865 111 l 1075 111 l 1075 0 l 753 0 l 753 167 z "},"¾":{"ha":1050,"x_min":68,"x_max":983,"o":"m 940 763 l 940 296 l 983 296 l 983 187 l 940 187 l 940 0 l 830 0 l 830 187 l 607 187 l 607 283 l 800 763 l 940 763 m 715 296 l 830 296 l 830 587 l 715 296 m 866 1331 l 376 0 l 257 0 l 747 1331 l 866 1331 m 281 855 q 263 906 281 898 q 233 910 253 910 l 195 910 l 195 1021 l 242 1021 q 266 1026 258 1021 q 281 1074 281 1035 l 281 1191 q 263 1242 281 1234 q 232 1246 253 1246 q 220 1245 227 1246 q 180 1191 180 1244 l 180 1086 l 68 1086 l 68 1192 q 134 1339 68 1305 q 228 1363 180 1363 q 319 1342 273 1363 q 393 1192 393 1311 l 393 1074 q 331 964 393 996 q 393 855 393 932 l 393 713 q 340 573 393 610 q 236 547 307 549 l 227 547 q 130 568 164 547 q 68 713 68 603 l 68 818 l 180 818 l 180 712 q 230 658 180 658 q 281 712 281 658 l 281 855 z "},"¿":{"ha":714,"x_min":81,"x_max":633,"o":"m 554 952 l 334 952 l 334 1173 l 554 1173 l 554 952 m 81 234 q 216 537 81 403 q 351 771 351 671 l 351 802 l 543 802 l 543 755 q 408 455 543 589 q 273 229 273 321 l 273 100 q 356 10 273 10 l 357 10 q 441 100 441 10 l 441 279 l 633 279 l 633 100 q 357 -180 633 -180 q 81 100 81 -180 l 81 234 z "},"À":{"ha":713,"x_min":41,"x_max":699,"o":"m 637 472 l 699 0 l 505 0 l 468 282 l 272 282 l 234 0 l 41 0 l 103 470 l 239 1331 l 502 1331 l 637 472 m 443 472 l 370 1025 l 296 472 l 443 472 m 146 1554 l 296 1554 l 393 1382 l 286 1382 l 146 1554 z "},"Á":{"ha":713,"x_min":41,"x_max":699,"o":"m 637 472 l 699 0 l 505 0 l 468 282 l 272 282 l 234 0 l 41 0 l 103 470 l 239 1331 l 502 1331 l 637 472 m 443 472 l 370 1025 l 296 472 l 443 472 m 364 1382 l 258 1382 l 354 1554 l 505 1554 l 364 1382 z "},"Â":{"ha":713,"x_min":41,"x_max":699,"o":"m 637 472 l 699 0 l 505 0 l 468 282 l 272 282 l 234 0 l 41 0 l 103 470 l 239 1331 l 502 1331 l 637 472 m 443 472 l 370 1025 l 296 472 l 443 472 m 134 1383 l 279 1554 l 458 1554 l 606 1383 l 461 1383 l 369 1446 l 277 1383 l 134 1383 z "},"Ã":{"ha":713,"x_min":41,"x_max":699,"o":"m 637 472 l 699 0 l 505 0 l 468 282 l 272 282 l 234 0 l 41 0 l 103 470 l 239 1331 l 502 1331 l 637 472 m 443 472 l 370 1025 l 296 472 l 443 472 m 230 1360 l 137 1410 l 161 1458 q 279 1554 206 1550 l 283 1554 q 401 1509 329 1554 q 458 1487 435 1487 q 487 1503 477 1487 l 515 1548 l 603 1490 l 575 1444 q 468 1371 532 1375 l 463 1371 q 347 1416 418 1371 q 294 1445 302 1444 l 291 1445 q 254 1409 272 1445 l 230 1360 z "},"Ä":{"ha":713,"x_min":41,"x_max":699,"o":"m 637 472 l 699 0 l 505 0 l 468 282 l 272 282 l 234 0 l 41 0 l 103 470 l 239 1331 l 502 1331 l 637 472 m 443 472 l 370 1025 l 296 472 l 443 472 m 153 1547 l 317 1547 l 317 1383 l 153 1383 l 153 1547 m 422 1547 l 587 1547 l 587 1383 l 422 1383 l 422 1547 z "},"Å":{"ha":740,"x_min":41,"x_max":699,"o":"m 443 472 l 370 1025 l 296 472 l 443 472 m 370 1474 q 315 1420 315 1474 q 370 1365 315 1365 q 425 1420 425 1365 q 370 1474 425 1474 m 481 1331 l 502 1331 l 637 472 l 699 0 l 505 0 l 468 282 l 272 282 l 234 0 l 41 0 l 103 470 l 239 1331 l 259 1331 q 235 1420 235 1363 q 370 1554 235 1554 q 505 1420 505 1554 q 481 1331 505 1363 z "},"Æ":{"ha":1002,"x_min":41,"x_max":871,"o":"m 374 282 l 272 282 l 234 0 l 41 0 l 103 470 l 239 1331 l 871 1331 l 871 1141 l 566 1141 l 566 760 l 829 760 l 829 570 l 566 570 l 566 189 l 871 189 l 871 0 l 374 0 l 374 282 m 374 472 l 374 995 l 370 1025 l 296 472 l 374 472 z "},"Ç":{"ha":707,"x_min":81,"x_max":633,"o":"m 309 -20 q 81 258 81 3 l 81 1072 q 357 1352 81 1352 q 633 1072 633 1352 l 633 893 l 441 893 l 441 1072 q 357 1162 441 1162 l 356 1162 q 273 1072 273 1162 l 273 258 q 357 168 273 168 q 441 258 441 168 l 441 437 l 633 437 l 633 258 q 387 -21 633 -5 l 374 -58 q 420 -45 399 -45 q 460 -58 441 -45 q 479 -106 479 -72 l 479 -173 q 408 -236 479 -231 q 385 -237 399 -237 q 372 -237 379 -237 q 292 -173 292 -235 l 292 -153 l 372 -153 l 372 -173 q 385 -183 372 -183 q 399 -173 399 -183 l 399 -106 q 386 -94 399 -94 l 385 -94 q 369 -105 374 -94 l 292 -105 l 309 -20 z "},"È":{"ha":640,"x_min":88,"x_max":586,"o":"m 88 1331 l 586 1331 l 586 1141 l 280 1141 l 280 760 l 543 760 l 543 570 l 280 570 l 280 189 l 586 189 l 586 0 l 88 0 l 88 1331 m 113 1554 l 263 1554 l 359 1382 l 253 1382 l 113 1554 z "},"É":{"ha":640,"x_min":88,"x_max":586,"o":"m 88 1331 l 586 1331 l 586 1141 l 280 1141 l 280 760 l 543 760 l 543 570 l 280 570 l 280 189 l 586 189 l 586 0 l 88 0 l 88 1331 m 332 1382 l 225 1382 l 321 1554 l 472 1554 l 332 1382 z "},"Ê":{"ha":640,"x_min":73,"x_max":571,"o":"m 73 1331 l 571 1331 l 571 1141 l 265 1141 l 265 760 l 528 760 l 528 570 l 265 570 l 265 189 l 571 189 l 571 0 l 73 0 l 73 1331 m 86 1383 l 231 1554 l 410 1554 l 558 1383 l 413 1383 l 321 1446 l 229 1383 l 86 1383 z "},"Ë":{"ha":640,"x_min":88,"x_max":586,"o":"m 88 1331 l 586 1331 l 586 1141 l 280 1141 l 280 760 l 543 760 l 543 570 l 280 570 l 280 189 l 586 189 l 586 0 l 88 0 l 88 1331 m 121 1547 l 285 1547 l 285 1383 l 121 1383 l 121 1547 m 389 1547 l 554 1547 l 554 1383 l 389 1383 l 389 1547 z "},"Ì":{"ha":375,"x_min":-37,"x_max":283,"o":"m 92 1331 l 283 1331 l 283 0 l 92 0 l 92 1331 m -37 1554 l 114 1554 l 210 1382 l 104 1382 l -37 1554 z "},"Í":{"ha":375,"x_min":75,"x_max":322,"o":"m 92 1331 l 283 1331 l 283 0 l 92 0 l 92 1331 m 182 1382 l 75 1382 l 172 1554 l 322 1554 l 182 1382 z "},"Î":{"ha":375,"x_min":-76,"x_max":396,"o":"m 64 1331 l 256 1331 l 256 0 l 64 0 l 64 1331 m -76 1383 l 69 1554 l 248 1554 l 396 1383 l 251 1383 l 159 1446 l 67 1383 l -76 1383 z "},"Ï":{"ha":375,"x_min":-29,"x_max":404,"o":"m 92 1331 l 283 1331 l 283 0 l 92 0 l 92 1331 m -29 1547 l 135 1547 l 135 1383 l -29 1383 l -29 1547 m 239 1547 l 404 1547 l 404 1383 l 239 1383 l 239 1547 z "},"Ð":{"ha":756,"x_min":39,"x_max":675,"o":"m 315 594 l 315 189 l 399 189 q 483 279 483 189 l 483 1050 q 399 1141 483 1141 l 315 1141 l 315 737 l 382 737 l 382 594 l 315 594 m 123 737 l 123 1331 l 419 1330 q 675 1050 675 1330 l 675 279 q 419 1 675 1 q 407 0 415 1 l 123 0 l 123 594 l 39 594 l 39 737 l 123 737 z "},"Ñ":{"ha":728,"x_min":88,"x_max":640,"o":"m 88 1331 l 280 1331 l 462 559 l 462 1331 l 640 1331 l 640 0 l 448 0 l 273 747 l 273 0 l 88 0 l 88 1331 m 224 1360 l 131 1410 l 155 1458 q 273 1554 200 1550 l 277 1554 q 395 1509 323 1554 q 452 1487 429 1487 q 481 1503 471 1487 l 509 1548 l 597 1490 l 569 1444 q 462 1371 526 1375 l 457 1371 q 341 1416 412 1371 q 288 1445 296 1444 l 285 1445 q 248 1409 266 1445 l 224 1360 z "},"Ò":{"ha":701,"x_min":81,"x_max":633,"o":"m 633 258 q 357 -22 633 -21 q 81 258 81 -22 l 81 1072 q 357 1352 81 1352 q 633 1072 633 1352 l 633 258 m 441 1072 q 357 1162 441 1162 l 356 1162 q 273 1072 273 1162 l 273 258 q 357 168 273 168 q 441 258 441 168 l 441 1072 m 133 1554 l 283 1554 l 380 1382 l 273 1382 l 133 1554 z "},"Ó":{"ha":701,"x_min":81,"x_max":633,"o":"m 633 258 q 357 -22 633 -21 q 81 258 81 -22 l 81 1072 q 357 1352 81 1352 q 633 1072 633 1352 l 633 258 m 441 1072 q 357 1162 441 1162 l 356 1162 q 273 1072 273 1162 l 273 258 q 357 168 273 168 q 441 258 441 168 l 441 1072 m 351 1382 l 245 1382 l 341 1554 l 492 1554 l 351 1382 z "},"Ô":{"ha":701,"x_min":81,"x_max":633,"o":"m 633 258 q 357 -22 633 -21 q 81 258 81 -22 l 81 1072 q 357 1352 81 1352 q 633 1072 633 1352 l 633 258 m 441 1072 q 357 1162 441 1162 l 356 1162 q 273 1072 273 1162 l 273 258 q 357 168 273 168 q 441 258 441 168 l 441 1072 m 121 1383 l 267 1554 l 446 1554 l 593 1383 l 448 1383 l 356 1446 l 264 1383 l 121 1383 z "},"Õ":{"ha":701,"x_min":81,"x_max":633,"o":"m 633 258 q 357 -22 633 -21 q 81 258 81 -22 l 81 1072 q 357 1352 81 1352 q 633 1072 633 1352 l 633 258 m 441 1072 q 357 1162 441 1162 l 356 1162 q 273 1072 273 1162 l 273 258 q 357 168 273 168 q 441 258 441 168 l 441 1072 m 217 1360 l 124 1410 l 148 1458 q 266 1554 193 1550 l 271 1554 q 388 1509 316 1554 q 445 1487 422 1487 q 474 1503 464 1487 l 502 1548 l 590 1490 l 562 1444 q 455 1371 519 1375 l 450 1371 q 334 1416 405 1371 q 281 1445 290 1444 l 278 1445 q 241 1409 259 1445 l 217 1360 z "},"Ö":{"ha":701,"x_min":81,"x_max":633,"o":"m 633 258 q 357 -22 633 -21 q 81 258 81 -22 l 81 1072 q 357 1352 81 1352 q 633 1072 633 1352 l 633 258 m 441 1072 q 357 1162 441 1162 l 356 1162 q 273 1072 273 1162 l 273 258 q 357 168 273 168 q 441 258 441 168 l 441 1072 m 140 1547 l 304 1547 l 304 1383 l 140 1383 l 140 1547 m 409 1547 l 574 1547 l 574 1383 l 409 1383 l 409 1547 z "},"×":{"ha":710,"x_min":106,"x_max":604,"o":"m 355 554 l 218 416 l 106 528 l 244 666 l 106 804 l 218 915 l 355 777 l 493 915 l 604 803 l 467 666 l 604 528 l 493 417 l 355 554 z "},"Ø":{"ha":714,"x_min":81,"x_max":633,"o":"m 283 205 q 357 168 303 168 q 441 258 441 168 l 441 854 l 283 205 m 273 555 l 416 1144 q 357 1162 395 1162 l 356 1162 q 273 1072 273 1162 l 273 555 m 548 1296 q 633 1072 633 1227 l 633 258 q 357 -22 633 -21 q 233 -3 286 -22 l 200 -140 l 105 -140 l 151 48 q 81 258 81 118 l 81 1072 q 357 1352 81 1352 q 463 1339 416 1352 l 484 1425 l 579 1425 l 548 1296 z "},"Ù":{"ha":714,"x_min":81,"x_max":633,"o":"m 633 258 q 357 -22 633 -21 q 81 258 81 -22 l 81 1331 l 273 1331 l 273 258 q 357 168 273 168 q 441 258 441 168 l 441 1331 l 633 1331 l 633 258 m 133 1554 l 283 1554 l 380 1382 l 273 1382 l 133 1554 z "},"Ú":{"ha":714,"x_min":81,"x_max":633,"o":"m 633 258 q 357 -22 633 -21 q 81 258 81 -22 l 81 1331 l 273 1331 l 273 258 q 357 168 273 168 q 441 258 441 168 l 441 1331 l 633 1331 l 633 258 m 351 1382 l 245 1382 l 341 1554 l 492 1554 l 351 1382 z "},"Û":{"ha":714,"x_min":81,"x_max":633,"o":"m 633 258 q 357 -22 633 -21 q 81 258 81 -22 l 81 1331 l 273 1331 l 273 258 q 357 168 273 168 q 441 258 441 168 l 441 1331 l 633 1331 l 633 258 m 121 1383 l 267 1554 l 446 1554 l 593 1383 l 448 1383 l 356 1446 l 264 1383 l 121 1383 z "},"Ü":{"ha":714,"x_min":81,"x_max":633,"o":"m 633 258 q 357 -22 633 -21 q 81 258 81 -22 l 81 1331 l 273 1331 l 273 258 q 357 168 273 168 q 441 258 441 168 l 441 1331 l 633 1331 l 633 258 m 140 1547 l 304 1547 l 304 1383 l 140 1383 l 140 1547 m 409 1547 l 574 1547 l 574 1383 l 409 1383 l 409 1547 z "},"Ý":{"ha":723,"x_min":41,"x_max":709,"o":"m 244 1331 l 375 812 l 506 1331 l 709 1331 l 477 576 l 471 559 l 471 0 l 279 0 l 279 559 l 273 576 l 41 1331 l 244 1331 m 370 1382 l 263 1382 l 359 1554 l 510 1554 l 370 1382 z "},"Þ":{"ha":690,"x_min":88,"x_max":623,"o":"m 280 1109 l 342 1109 q 355 1108 347 1109 l 368 1108 q 623 829 623 1108 l 623 629 q 439 363 623 422 q 311 349 395 349 l 280 349 l 280 -222 l 88 -222 l 88 1331 l 280 1331 l 280 1109 m 280 920 l 280 538 l 323 538 q 379 544 363 538 q 431 629 431 565 l 431 829 q 347 920 431 920 l 280 920 z "},"ß":{"ha":714,"x_min":88,"x_max":640,"o":"m 640 850 q 534 665 640 720 q 640 480 640 612 l 640 136 q 384 -143 640 -143 l 365 -144 l 365 45 q 448 136 448 45 l 448 480 q 395 565 448 544 q 340 571 380 571 l 280 571 l 280 0 l 88 0 l 88 1051 q 363 1331 88 1331 q 640 1051 640 1331 l 640 850 m 280 760 l 340 760 q 395 766 380 760 q 448 850 448 787 l 448 1051 q 364 1141 448 1141 l 363 1141 q 280 1051 280 1141 l 280 760 z "},"à":{"ha":713,"x_min":41,"x_max":699,"o":"m 637 417 l 699 0 l 505 0 l 468 250 l 272 250 l 234 0 l 41 0 l 103 416 l 239 1176 l 502 1176 l 637 417 m 443 417 l 370 907 l 296 417 l 443 417 m 146 1396 l 296 1396 l 393 1224 l 286 1224 l 146 1396 z "},"á":{"ha":713,"x_min":41,"x_max":699,"o":"m 637 417 l 699 0 l 505 0 l 468 250 l 272 250 l 234 0 l 41 0 l 103 416 l 239 1176 l 502 1176 l 637 417 m 443 417 l 370 907 l 296 417 l 443 417 m 364 1224 l 258 1224 l 354 1396 l 505 1396 l 364 1224 z "},"â":{"ha":713,"x_min":41,"x_max":699,"o":"m 637 417 l 699 0 l 505 0 l 468 250 l 272 250 l 234 0 l 41 0 l 103 416 l 239 1176 l 502 1176 l 637 417 m 443 417 l 370 907 l 296 417 l 443 417 m 134 1225 l 279 1396 l 458 1396 l 606 1225 l 461 1225 l 369 1288 l 277 1225 l 134 1225 z "},"ã":{"ha":713,"x_min":41,"x_max":699,"o":"m 637 417 l 699 0 l 505 0 l 468 250 l 272 250 l 234 0 l 41 0 l 103 416 l 239 1176 l 502 1176 l 637 417 m 443 417 l 370 907 l 296 417 l 443 417 m 230 1202 l 137 1252 l 161 1300 q 279 1396 206 1392 l 283 1396 q 401 1351 329 1396 q 458 1329 435 1329 q 487 1345 477 1329 l 515 1390 l 603 1332 l 575 1286 q 468 1213 532 1217 l 463 1213 q 347 1258 418 1213 q 294 1287 302 1286 l 291 1287 q 254 1251 272 1287 l 230 1202 z "},"ä":{"ha":713,"x_min":41,"x_max":699,"o":"m 637 417 l 699 0 l 505 0 l 468 250 l 272 250 l 234 0 l 41 0 l 103 416 l 239 1176 l 502 1176 l 637 417 m 443 417 l 370 907 l 296 417 l 443 417 m 153 1389 l 317 1389 l 317 1225 l 153 1225 l 153 1389 m 422 1389 l 587 1389 l 587 1225 l 422 1225 l 422 1389 z "},"å":{"ha":740,"x_min":41,"x_max":699,"o":"m 443 416 l 370 903 l 296 416 l 443 416 m 370 1316 q 315 1262 315 1316 q 370 1207 315 1207 q 425 1262 425 1207 q 370 1316 425 1316 m 481 1173 l 502 1173 l 637 416 l 699 0 l 505 0 l 468 250 l 272 250 l 234 0 l 41 0 l 103 414 l 239 1173 l 259 1173 q 235 1262 235 1205 q 370 1396 235 1396 q 505 1262 505 1396 q 481 1173 505 1205 z "},"æ":{"ha":1063,"x_min":41,"x_max":872,"o":"m 374 250 l 272 250 l 234 0 l 41 0 l 103 414 l 239 1173 l 872 1173 l 872 1006 l 566 1006 l 566 670 l 829 670 l 829 503 l 566 503 l 566 167 l 872 167 l 872 0 l 374 0 l 374 250 m 374 416 l 374 871 l 370 903 l 296 416 l 374 416 z "},"ç":{"ha":707,"x_min":81,"x_max":633,"o":"m 283 -13 q 81 228 81 18 l 81 945 q 357 1192 81 1192 q 633 945 633 1192 l 633 787 l 441 787 l 441 945 q 357 1025 441 1024 q 273 945 273 1025 l 273 228 q 357 149 273 149 q 441 228 441 149 l 441 386 l 633 386 l 633 228 q 361 -18 633 -16 l 347 -58 q 393 -45 372 -45 q 432 -58 414 -45 q 451 -106 451 -72 l 451 -173 q 381 -236 451 -231 q 358 -237 371 -237 q 345 -237 351 -237 q 264 -173 264 -235 l 264 -153 l 344 -153 l 344 -173 q 357 -183 344 -183 q 371 -173 371 -183 l 371 -106 q 359 -94 371 -94 l 357 -94 q 341 -105 346 -94 l 264 -105 l 283 -13 z "},"è":{"ha":640,"x_min":88,"x_max":586,"o":"m 88 1176 l 586 1176 l 586 1009 l 280 1009 l 280 672 l 543 672 l 543 504 l 280 504 l 280 168 l 586 168 l 586 0 l 88 0 l 88 1176 m 113 1396 l 263 1396 l 359 1224 l 253 1224 l 113 1396 z "},"é":{"ha":640,"x_min":88,"x_max":586,"o":"m 88 1176 l 586 1176 l 586 1009 l 280 1009 l 280 672 l 543 672 l 543 504 l 280 504 l 280 168 l 586 168 l 586 0 l 88 0 l 88 1176 m 332 1224 l 225 1224 l 321 1396 l 472 1396 l 332 1224 z "},"ê":{"ha":640,"x_min":73,"x_max":571,"o":"m 73 1176 l 571 1176 l 571 1009 l 265 1009 l 265 672 l 528 672 l 528 504 l 265 504 l 265 168 l 571 168 l 571 0 l 73 0 l 73 1176 m 86 1225 l 231 1396 l 410 1396 l 558 1225 l 413 1225 l 321 1288 l 229 1225 l 86 1225 z "},"ë":{"ha":640,"x_min":88,"x_max":586,"o":"m 88 1176 l 586 1176 l 586 1009 l 280 1009 l 280 672 l 543 672 l 543 504 l 280 504 l 280 168 l 586 168 l 586 0 l 88 0 l 88 1176 m 121 1389 l 285 1389 l 285 1225 l 121 1225 l 121 1389 m 389 1389 l 554 1389 l 554 1225 l 389 1225 l 389 1389 z "},"ì":{"ha":349,"x_min":-37,"x_max":283,"o":"m 92 1173 l 283 1173 l 283 0 l 92 0 l 92 1173 m -37 1396 l 114 1396 l 210 1224 l 104 1224 l -37 1396 z "},"í":{"ha":349,"x_min":75,"x_max":322,"o":"m 92 1173 l 283 1173 l 283 0 l 92 0 l 92 1173 m 182 1224 l 75 1224 l 172 1396 l 322 1396 l 182 1224 z "},"î":{"ha":349,"x_min":-76,"x_max":396,"o":"m 64 1173 l 256 1173 l 256 0 l 64 0 l 64 1173 m -76 1225 l 69 1396 l 248 1396 l 396 1225 l 251 1225 l 159 1288 l 67 1225 l -76 1225 z "},"ï":{"ha":349,"x_min":-29,"x_max":404,"o":"m 92 1173 l 283 1173 l 283 0 l 92 0 l 92 1173 m -29 1389 l 135 1389 l 135 1225 l -29 1225 l -29 1389 m 239 1389 l 404 1389 l 404 1225 l 239 1225 l 239 1389 z "},"ð":{"ha":714,"x_min":81,"x_max":633,"o":"m 230 901 l 136 1013 l 272 1126 q 153 1182 231 1152 l 200 1333 q 410 1242 338 1292 l 523 1337 l 616 1225 l 515 1141 q 633 713 633 984 l 633 280 q 357 0 633 0 q 81 280 81 0 l 81 528 q 319 793 81 793 q 441 753 391 793 q 376 1024 441 922 l 230 901 m 273 280 q 357 190 273 190 q 441 280 441 190 l 441 528 q 374 618 441 615 q 355 618 363 618 q 303 612 319 618 q 273 528 273 599 l 273 280 z "},"ñ":{"ha":728,"x_min":88,"x_max":640,"o":"m 88 1176 l 280 1176 l 462 494 l 462 1176 l 640 1176 l 640 0 l 448 0 l 273 661 l 273 0 l 88 0 l 88 1176 m 224 1202 l 131 1252 l 155 1300 q 273 1396 200 1392 l 277 1396 q 395 1351 323 1396 q 452 1329 429 1329 q 481 1345 471 1329 l 509 1390 l 597 1332 l 569 1286 q 462 1213 526 1217 l 457 1213 q 341 1258 412 1213 q 288 1287 296 1286 l 285 1287 q 248 1251 266 1287 l 224 1202 z "},"ò":{"ha":701,"x_min":81,"x_max":633,"o":"m 633 226 q 357 -22 633 -21 q 81 226 81 -22 l 81 945 q 357 1192 81 1192 q 633 945 633 1192 l 633 226 m 441 945 q 357 1025 441 1025 l 356 1025 q 273 945 273 1025 l 273 226 q 357 146 273 146 q 441 226 441 146 l 441 945 m 133 1396 l 283 1396 l 380 1224 l 273 1224 l 133 1396 z "},"ó":{"ha":701,"x_min":81,"x_max":633,"o":"m 633 226 q 357 -22 633 -21 q 81 226 81 -22 l 81 945 q 357 1192 81 1192 q 633 945 633 1192 l 633 226 m 441 945 q 357 1025 441 1025 l 356 1025 q 273 945 273 1025 l 273 226 q 357 146 273 146 q 441 226 441 146 l 441 945 m 351 1224 l 245 1224 l 341 1396 l 492 1396 l 351 1224 z "},"ô":{"ha":701,"x_min":81,"x_max":633,"o":"m 633 226 q 357 -22 633 -21 q 81 226 81 -22 l 81 945 q 357 1192 81 1192 q 633 945 633 1192 l 633 226 m 441 945 q 357 1025 441 1025 l 356 1025 q 273 945 273 1025 l 273 226 q 357 146 273 146 q 441 226 441 146 l 441 945 m 121 1225 l 267 1396 l 446 1396 l 593 1225 l 448 1225 l 356 1288 l 264 1225 l 121 1225 z "},"õ":{"ha":701,"x_min":81,"x_max":633,"o":"m 633 226 q 357 -22 633 -21 q 81 226 81 -22 l 81 945 q 357 1192 81 1192 q 633 945 633 1192 l 633 226 m 441 945 q 357 1025 441 1025 l 356 1025 q 273 945 273 1025 l 273 226 q 357 146 273 146 q 441 226 441 146 l 441 945 m 217 1202 l 124 1252 l 148 1300 q 266 1396 193 1392 l 271 1396 q 388 1351 316 1396 q 445 1329 422 1329 q 474 1345 464 1329 l 502 1390 l 590 1332 l 562 1286 q 455 1213 519 1217 l 450 1213 q 334 1258 405 1213 q 281 1287 290 1286 l 278 1287 q 241 1251 259 1287 l 217 1202 z "},"ö":{"ha":701,"x_min":81,"x_max":633,"o":"m 633 226 q 357 -22 633 -21 q 81 226 81 -22 l 81 945 q 357 1192 81 1192 q 633 945 633 1192 l 633 226 m 441 945 q 357 1025 441 1025 l 356 1025 q 273 945 273 1025 l 273 226 q 357 146 273 146 q 441 226 441 146 l 441 945 m 140 1389 l 304 1389 l 304 1225 l 140 1225 l 140 1389 m 409 1389 l 574 1389 l 574 1225 l 409 1225 l 409 1389 z "},"÷":{"ha":709,"x_min":81,"x_max":627,"o":"m 627 746 l 627 587 l 81 587 l 81 746 l 627 746 m 244 1118 l 464 1118 l 464 898 l 244 898 l 244 1118 m 244 437 l 464 437 l 464 216 l 244 216 l 244 437 z "},"ø":{"ha":714,"x_min":81,"x_max":646,"o":"m 294 168 q 357 149 315 149 q 441 228 441 149 l 441 648 l 294 168 m 273 415 l 440 961 q 357 1025 432 1024 q 273 945 273 1025 l 273 415 m 583 1111 q 633 945 633 1050 l 633 228 q 357 -18 633 -18 q 241 -5 292 -18 l 175 -222 l 81 -216 l 158 37 q 81 228 81 98 l 81 945 q 357 1192 81 1192 q 503 1167 444 1192 l 551 1324 l 646 1318 l 583 1111 z "},"ù":{"ha":714,"x_min":81,"x_max":633,"o":"m 633 226 q 357 -22 633 -21 q 81 226 81 -22 l 81 1174 l 273 1174 l 273 226 q 357 146 273 146 q 441 226 441 146 l 441 1174 l 633 1174 l 633 226 m 133 1396 l 283 1396 l 380 1224 l 273 1224 l 133 1396 z "},"ú":{"ha":714,"x_min":81,"x_max":633,"o":"m 633 226 q 357 -22 633 -21 q 81 226 81 -22 l 81 1174 l 273 1174 l 273 226 q 357 146 273 146 q 441 226 441 146 l 441 1174 l 633 1174 l 633 226 m 351 1224 l 245 1224 l 341 1396 l 492 1396 l 351 1224 z "},"û":{"ha":714,"x_min":81,"x_max":633,"o":"m 633 226 q 357 -22 633 -21 q 81 226 81 -22 l 81 1174 l 273 1174 l 273 226 q 357 146 273 146 q 441 226 441 146 l 441 1174 l 633 1174 l 633 226 m 121 1225 l 267 1396 l 446 1396 l 593 1225 l 448 1225 l 356 1288 l 264 1225 l 121 1225 z "},"ü":{"ha":714,"x_min":81,"x_max":633,"o":"m 633 226 q 357 -22 633 -21 q 81 226 81 -22 l 81 1174 l 273 1174 l 273 226 q 357 146 273 146 q 441 226 441 146 l 441 1174 l 633 1174 l 633 226 m 140 1389 l 304 1389 l 304 1225 l 140 1225 l 140 1389 m 409 1389 l 574 1389 l 574 1225 l 409 1225 l 409 1389 z "},"ý":{"ha":723,"x_min":41,"x_max":709,"o":"m 244 1176 l 375 718 l 506 1176 l 709 1176 l 477 509 l 471 494 l 471 0 l 279 0 l 279 494 l 273 509 l 41 1176 l 244 1176 m 370 1224 l 263 1224 l 359 1396 l 510 1396 l 370 1224 z "},"þ":{"ha":685,"x_min":88,"x_max":623,"o":"m 280 1109 l 342 1109 q 355 1108 347 1109 l 368 1108 q 623 829 623 1108 l 623 629 q 439 363 623 422 q 311 349 395 349 l 280 349 l 280 -222 l 88 -222 l 88 1331 l 280 1331 l 280 1109 m 280 920 l 280 538 l 323 538 q 379 544 363 538 q 431 629 431 565 l 431 829 q 347 920 431 920 l 280 920 z "},"ÿ":{"ha":723,"x_min":41,"x_max":709,"o":"m 244 1176 l 375 718 l 506 1176 l 709 1176 l 477 509 l 471 494 l 471 0 l 279 0 l 279 494 l 273 509 l 41 1176 l 244 1176 m 159 1389 l 323 1389 l 323 1225 l 159 1225 l 159 1389 m 427 1389 l 592 1389 l 592 1225 l 427 1225 l 427 1389 z "},"ı":{"ha":349,"x_min":92,"x_max":283,"o":"m 92 1173 l 283 1173 l 283 0 l 92 0 l 92 1173 z "},"ˆ":{"ha":648,"x_min":88,"x_max":560,"o":"m 88 1225 l 233 1396 l 412 1396 l 560 1225 l 415 1225 l 323 1288 l 231 1225 l 88 1225 z "},"ˇ":{"ha":648,"x_min":88,"x_max":560,"o":"m 231 1396 l 323 1333 l 415 1396 l 560 1396 l 412 1225 l 233 1225 l 88 1396 l 231 1396 z "},"ˉ":{"ha":610,"x_min":88,"x_max":522,"o":"m 88 1350 l 522 1350 l 522 1224 l 88 1224 l 88 1350 z "},"˘":{"ha":696,"x_min":88,"x_max":608,"o":"m 608 1394 q 340 1212 522 1212 l 338 1212 q 88 1394 153 1213 l 233 1394 q 347 1320 254 1320 l 348 1320 q 463 1394 442 1320 l 608 1394 z "},"˙":{"ha":341,"x_min":88,"x_max":253,"o":"m 88 1392 l 253 1392 l 253 1228 l 88 1228 l 88 1392 z "},"˚":{"ha":446,"x_min":88,"x_max":357,"o":"m 222 1396 q 357 1262 357 1396 q 222 1127 357 1127 q 88 1262 88 1127 q 222 1396 88 1396 m 222 1316 q 168 1262 168 1316 q 222 1207 168 1207 q 277 1262 277 1207 q 222 1316 277 1316 z "},"˜":{"ha":642,"x_min":88,"x_max":554,"o":"m 181 1202 l 88 1252 l 112 1300 q 230 1396 157 1392 l 235 1396 q 352 1351 280 1396 q 409 1329 387 1329 q 438 1345 428 1329 l 466 1390 l 554 1332 l 526 1286 q 419 1213 483 1217 l 414 1213 q 298 1258 369 1213 q 245 1287 254 1286 l 242 1287 q 205 1251 223 1287 l 181 1202 z "},"˝":{"ha":694,"x_min":0,"x_max":494,"o":"m 106 1224 l 0 1224 l 96 1396 l 247 1396 l 106 1224 m 353 1224 l 247 1224 l 343 1396 l 494 1396 l 353 1224 z "},"–":{"ha":795,"x_min":34,"x_max":753,"o":"m 34 570 l 34 728 l 753 728 l 753 570 l 34 570 z "},"—":{"ha":1389,"x_min":34,"x_max":1365,"o":"m 34 570 l 34 728 l 1365 728 l 1365 570 l 34 570 z "},"‘":{"ha":378,"x_min":88,"x_max":326,"o":"m 326 889 l 88 889 l 88 1084 l 161 1331 l 286 1331 l 246 1109 l 326 1109 l 326 889 z "},"’":{"ha":414,"x_min":88,"x_max":326,"o":"m 88 1331 l 326 1331 l 326 1136 l 253 889 l 128 889 l 168 1111 l 88 1111 l 88 1331 z "},"‚":{"ha":378,"x_min":81,"x_max":319,"o":"m 81 220 l 319 220 l 319 26 l 246 -222 l 122 -222 l 161 0 l 81 0 l 81 220 z "},"“":{"ha":710,"x_min":88,"x_max":658,"o":"m 326 889 l 88 889 l 88 1084 l 161 1331 l 286 1331 l 246 1109 l 326 1109 l 326 889 m 658 889 l 420 889 l 420 1084 l 493 1331 l 618 1331 l 578 1109 l 658 1109 l 658 889 z "},"”":{"ha":746,"x_min":88,"x_max":658,"o":"m 88 1331 l 326 1331 l 326 1136 l 253 889 l 128 889 l 168 1111 l 88 1111 l 88 1331 m 420 1331 l 658 1331 l 658 1136 l 585 889 l 460 889 l 500 1111 l 420 1111 l 420 1331 z "},"„":{"ha":746,"x_min":88,"x_max":658,"o":"m 88 221 l 326 221 l 326 26 l 253 -221 l 128 -221 l 168 1 l 88 1 l 88 221 m 420 221 l 658 221 l 658 26 l 585 -221 l 460 -221 l 500 1 l 420 1 l 420 221 z "},"†":{"ha":986,"x_min":88,"x_max":898,"o":"m 549 984 l 820 1021 q 837 1022 829 1022 q 898 926 898 1022 q 831 829 898 829 q 815 831 823 829 l 553 869 q 571 524 571 728 l 571 416 q 589 79 571 214 q 590 62 590 70 q 495 0 590 1 q 397 68 397 0 q 399 83 397 75 q 418 398 418 210 q 417 469 418 433 q 416 526 416 498 q 437 866 416 724 l 167 829 q 150 828 158 828 q 88 924 89 828 q 155 1021 88 1021 q 171 1019 163 1021 l 434 981 l 398 1251 q 396 1269 396 1261 q 492 1330 396 1330 q 589 1263 589 1330 q 587 1247 589 1255 l 549 984 z "},"‡":{"ha":986,"x_min":88,"x_max":898,"o":"m 587 1247 q 562 1022 562 1075 q 566 999 562 1002 q 586 996 568 996 q 819 1021 637 996 q 836 1022 828 1022 q 898 926 897 1022 q 831 829 898 829 q 815 831 823 829 l 552 869 l 563 789 q 588 739 588 769 q 587 728 588 734 q 583 669 583 700 q 588 598 583 635 q 589 585 589 591 q 559 536 589 555 l 549 465 l 819 500 q 836 502 828 502 q 898 407 897 502 q 830 309 898 309 q 815 311 823 309 l 552 349 l 588 79 q 589 62 589 70 q 494 0 589 1 q 397 68 397 0 q 398 83 397 75 l 437 346 l 166 310 q 149 308 157 308 q 88 404 88 308 q 155 500 88 500 q 170 499 162 500 l 433 461 l 422 541 q 397 591 397 561 q 398 603 397 597 q 402 661 402 631 q 397 732 402 695 q 396 745 396 739 q 426 793 396 775 l 437 866 l 166 829 q 149 828 157 828 q 88 924 88 828 q 155 1021 88 1021 q 170 1019 162 1021 l 433 981 l 397 1251 q 396 1268 396 1261 q 491 1330 396 1330 q 589 1262 589 1330 q 587 1247 589 1255 z "},"•":{"ha":669,"x_min":88,"x_max":581,"o":"m 334 913 q 509 841 437 913 q 581 667 581 769 q 509 492 581 565 q 334 420 437 420 q 160 492 233 420 q 88 667 88 565 q 160 841 88 769 q 334 913 233 913 z "},"…":{"ha":1389,"x_min":81,"x_max":1228,"o":"m 81 220 l 302 220 l 302 0 l 81 0 l 81 220 m 545 220 l 765 220 l 765 0 l 545 0 l 545 220 m 1008 220 l 1228 220 l 1228 0 l 1008 0 l 1008 220 z "},"‹":{"ha":553,"x_min":88,"x_max":465,"o":"m 465 800 l 313 671 l 465 546 l 465 329 l 88 680 l 465 1023 l 465 800 z "},"›":{"ha":553,"x_min":88,"x_max":465,"o":"m 88 1023 l 465 680 l 88 329 l 88 546 l 240 671 l 88 800 l 88 1023 z "},"⁄":{"ha":232,"x_min":-192,"x_max":417,"o":"m 417 1331 l -73 0 l -192 0 l 298 1331 l 417 1331 z "},"₣":{"ha":653,"x_min":34,"x_max":612,"o":"m 115 404 l 115 1331 l 612 1331 l 612 1141 l 307 1141 l 307 760 l 570 760 l 570 570 l 307 570 l 307 404 l 433 404 l 433 261 l 307 261 l 307 0 l 115 0 l 115 261 l 34 261 l 34 404 l 115 404 z "},"₤":{"ha":763,"x_min":41,"x_max":722,"o":"m 171 838 l 171 1072 q 447 1352 171 1352 q 722 1072 722 1352 l 722 894 l 530 894 l 530 1072 q 447 1162 530 1162 l 446 1162 q 363 1072 363 1162 l 363 838 l 588 838 l 588 730 l 363 730 l 363 623 l 588 623 l 588 515 l 363 515 l 363 374 q 321 189 363 254 l 669 189 l 669 0 l 41 0 l 41 189 l 87 189 q 171 280 171 189 l 171 515 l 41 515 l 41 623 l 171 623 l 171 730 l 41 730 l 41 838 l 171 838 z "},"₧":{"ha":1475,"x_min":88,"x_max":1505,"o":"m 261 1141 l 261 760 l 300 760 q 350 766 336 760 q 397 850 397 787 l 397 1050 q 322 1141 397 1141 l 261 1141 m 570 1006 l 570 850 q 404 585 570 644 q 289 570 365 570 l 261 570 l 261 0 l 88 0 l 88 1331 l 340 1330 q 555 1173 512 1330 l 1046 1173 l 1046 1148 q 1229 1192 1114 1192 q 1505 945 1505 1192 l 1505 787 l 1313 787 l 1313 945 q 1230 1025 1313 1024 q 1145 945 1145 1025 l 1145 839 q 1325 647 1145 760 q 1505 376 1505 534 l 1505 228 q 1230 -18 1505 -18 q 954 228 954 -18 l 954 386 l 1145 386 l 1145 228 q 1230 149 1145 149 q 1313 228 1313 149 l 1313 361 q 1133 560 1313 447 q 954 835 954 673 l 954 945 q 958 1006 954 977 l 867 1006 l 867 0 l 675 0 l 675 1006 l 570 1006 z "},"€":{"ha":742,"x_min":20,"x_max":667,"o":"m 116 827 l 116 1072 q 391 1352 116 1352 q 667 1072 667 1352 l 667 894 l 475 894 l 475 1072 q 392 1162 475 1162 l 391 1162 q 308 1072 308 1162 l 308 827 l 567 827 l 567 720 l 308 720 l 308 611 l 567 611 l 567 504 l 308 504 l 308 258 q 391 168 308 168 q 475 258 475 168 l 475 437 l 667 437 l 667 258 q 391 -21 667 -21 q 116 258 116 -21 l 116 504 l 20 504 l 20 611 l 116 611 l 116 720 l 20 720 l 20 827 l 116 827 z "},"№":{"ha":1255,"x_min":88,"x_max":1173,"o":"m 88 1331 l 280 1331 l 462 559 l 462 1331 l 640 1331 l 640 0 l 448 0 l 273 747 l 273 0 l 88 0 l 88 1331 m 1173 753 q 991 605 1173 605 q 809 753 809 605 l 809 1183 q 991 1331 809 1331 q 1173 1183 1173 1331 l 1173 753 m 1046 1183 q 991 1231 1046 1230 q 936 1183 936 1231 l 936 753 q 991 705 936 705 q 1046 753 1046 705 l 1046 1183 m 816 343 l 816 462 l 1166 462 l 1166 343 l 816 343 z "},"™":{"ha":751,"x_min":41,"x_max":700,"o":"m 289 1173 l 289 1097 l 208 1097 l 208 640 l 121 640 l 121 1097 l 41 1097 l 41 1173 l 289 1173 m 513 808 l 613 1173 l 700 1173 l 700 641 l 617 641 l 617 939 l 543 641 l 484 641 l 408 939 l 408 641 l 325 641 l 325 1173 l 411 1173 l 513 808 z "},"∂":{"ha":714,"x_min":81,"x_max":633,"o":"m 441 753 q 153 1182 441 1071 l 200 1333 q 633 713 633 1205 l 633 280 q 357 0 633 0 q 81 280 81 0 l 81 528 q 319 793 81 793 q 441 753 391 793 m 273 280 q 357 190 273 190 q 441 280 441 190 l 441 528 q 373 618 441 615 q 354 618 363 618 q 303 612 319 618 q 273 528 273 599 l 273 280 z "},"−":{"ha":709,"x_min":81,"x_max":627,"o":"m 627 746 l 627 587 l 81 587 l 81 746 l 627 746 z "},"≈":{"ha":746,"x_min":68,"x_max":678,"o":"m 182 604 l 68 677 l 104 734 q 262 838 172 838 l 269 838 q 420 766 328 836 q 496 732 467 732 q 530 748 517 732 l 572 801 l 678 717 l 636 664 q 498 587 575 587 l 490 587 q 339 658 430 589 q 274 701 286 699 q 268 701 271 701 q 218 661 245 701 l 182 604 m 182 352 l 68 426 l 104 482 q 262 587 172 587 l 269 587 q 420 515 328 584 q 496 480 467 480 q 530 496 517 480 l 572 549 l 678 465 l 636 412 q 498 335 575 335 l 490 335 q 339 406 430 338 q 274 449 286 447 q 268 450 271 450 q 218 409 245 450 l 182 352 z "},"≤":{"ha":710,"x_min":81,"x_max":629,"o":"m 81 732 l 629 1038 l 629 852 l 231 635 l 629 424 l 629 238 l 81 534 l 81 732 m 627 159 l 627 0 l 81 0 l 81 159 l 627 159 z "},"≥":{"ha":710,"x_min":81,"x_max":629,"o":"m 629 534 l 81 238 l 81 424 l 479 635 l 81 852 l 81 1038 l 629 732 l 629 534 m 627 159 l 627 0 l 81 0 l 81 159 l 627 159 z "},"":{"ha":998,"x_min":88,"x_max":910,"o":"m 88 1176 l 586 1176 l 586 1009 l 280 1009 l 280 672 l 543 672 l 543 504 l 280 504 l 280 0 l 88 0 l 88 1176 m 718 1176 l 910 1176 l 910 0 l 718 0 l 718 1176 z "},"":{"ha":1253,"x_min":88,"x_max":1213,"o":"m 88 1176 l 586 1176 l 586 1009 l 280 1009 l 280 672 l 543 672 l 543 504 l 280 504 l 280 0 l 88 0 l 88 1176 m 715 0 l 715 1176 l 907 1176 l 907 168 l 1213 168 l 1213 0 l 715 0 z "},"Œ":{"ha":929,"x_min":75,"x_max":922,"o":"m 481 0 q 350 -22 427 -22 q 75 258 75 -22 l 75 1072 q 350 1352 75 1352 q 481 1331 426 1352 l 922 1331 l 922 1141 l 621 1141 q 626 1072 626 1109 l 626 760 l 880 760 l 880 570 l 626 570 l 626 258 q 621 189 626 221 l 922 189 l 922 0 l 481 0 m 425 208 l 425 1122 q 351 1162 406 1162 l 349 1162 q 267 1072 267 1162 l 267 258 q 350 168 267 168 q 425 208 406 168 z "},"œ":{"ha":1078,"x_min":75,"x_max":932,"o":"m 488 0 q 350 -22 431 -22 q 75 226 75 -22 l 75 945 q 350 1192 75 1192 q 473 1176 421 1192 l 932 1176 l 932 1009 l 626 1009 l 626 672 l 889 672 l 889 504 l 626 504 l 626 168 l 932 168 l 932 0 l 488 0 m 434 945 q 351 1025 434 1025 l 349 1025 q 267 945 267 1025 l 267 226 q 350 146 267 146 q 434 226 434 146 l 434 945 z "}}}
